<?xml version="1.0" standalone="no"?>
<!DOCTYPE svg PUBLIC "-//W3C//DTD SVG 20010904//EN"
 "http://www.w3.org/TR/2001/REC-SVG-20010904/DTD/svg10.dtd">
<svg version="1.0" xmlns="http://www.w3.org/2000/svg"
 width="600.000000pt" height="600.000000pt" viewBox="0 0 600.000000 600.000000"
 preserveAspectRatio="xMidYMid meet">
<metadata>
Created by potrace 1.14, written by Peter Selinger 2001-2017
</metadata>
<g transform="translate(0.000000,600.000000) scale(0.100000,-0.100000)"
fill="#000000" stroke="none">
<path d="M1685 5092 c-79 -7 -187 -37 -253 -70 -125 -62 -203 -162 -243 -312
-19 -71 -23 -112 -23 -250 -1 -91 3 -183 7 -205 4 -22 10 -52 12 -68 15 -83
65 -176 131 -244 47 -48 175 -104 269 -118 49 -7 201 -7 235 0 14 3 41 8 60
11 19 3 63 21 98 40 l63 34 6 -30 c3 -17 13 -34 22 -38 13 -6 239 -8 323 -3
16 1 17 30 15 375 l-2 375 -317 0 -318 0 0 -155 c0 -153 0 -154 23 -155 12 0
59 0 104 1 l81 1 -8 -37 c-19 -84 -84 -122 -186 -109 -75 9 -117 51 -135 132
-26 126 -11 372 27 427 68 98 264 58 264 -55 0 -19 7 -19 228 -17 260 3 237
-8 216 110 -30 160 -122 260 -294 322 -41 15 -76 27 -78 26 -1 -1 -21 2 -45 6
-43 7 -228 12 -282 6z"/>
<path d="M2975 5089 c-115 -14 -163 -28 -250 -72 -109 -54 -222 -198 -241
-307 -3 -19 -9 -57 -14 -85 -9 -52 -6 -328 5 -380 46 -227 143 -334 362 -397
69 -20 101 -23 268 -23 208 0 260 9 382 67 140 66 229 204 249 383 3 28 7 56
10 63 6 21 6 231 -1 292 -28 244 -147 379 -388 440 -87 22 -282 32 -382 19z
m236 -365 c16 -8 35 -28 44 -44 37 -72 37 -365 0 -444 -23 -48 -67 -70 -145
-69 -138 0 -172 52 -174 268 -1 150 9 220 35 256 11 16 21 29 22 29 1 0 20 7
42 15 47 17 133 12 176 -11z"/>
<path d="M3832 4457 l3 -621 475 -1 c261 0 483 1 493 4 15 3 17 20 17 182 l0
179 -42 1 c-24 0 -141 1 -260 1 l-218 0 0 438 0 437 -235 1 -235 0 2 -621z"/>
<path d="M1196 3640 c-2 -3 -3 -282 -2 -620 l1 -615 384 -1 c436 0 486 4 584
49 136 62 207 181 222 367 15 185 9 448 -12 529 -38 143 -135 237 -278 270
-27 6 -61 14 -75 17 -32 7 -821 11 -824 4z m701 -356 c42 -31 51 -84 49 -284
-2 -246 -12 -261 -183 -267 -80 -3 -103 -1 -104 9 -6 55 -4 555 2 563 4 6 46
8 107 5 81 -4 106 -9 129 -26z"/>
<path d="M2475 3625 c-3 -11 -4 -290 -2 -620 l2 -600 516 -1 516 -1 2 172 2
172 -291 -1 -290 -1 0 53 c0 47 2 52 23 53 12 1 136 1 275 1 l252 0 0 174 0
174 -232 0 c-128 -1 -252 -1 -275 0 l-43 0 0 48 0 49 285 -1 285 -1 1 45 c0
66 1 251 0 280 l-1 25 -510 0 c-503 0 -511 0 -515 -20z"/>
<path d="M3597 3635 c-2 -9 0 -1210 2 -1226 2 -10 421 -7 428 4 3 5 6 115 5
245 l0 235 28 -44 c15 -24 38 -64 51 -89 14 -25 64 -115 113 -201 l88 -156
224 0 224 0 1 36 c4 169 1 1190 -4 1197 -4 7 -393 12 -428 5 -3 0 -5 -109 -5
-241 1 -132 -1 -240 -4 -240 -3 0 -18 24 -33 53 -15 28 -41 79 -60 112 -18 33
-64 116 -101 185 -38 69 -71 127 -73 130 -9 10 -453 5 -456 -5z"/>
<path d="M1194 1590 l0 -620 518 0 518 0 0 170 c0 94 -3 170 -7 171 -5 0 -135
0 -290 1 l-283 0 0 54 0 54 275 0 275 0 1 98 c0 53 0 127 1 164 0 37 -3 71 -5
75 -3 5 -127 9 -276 8 l-271 0 0 48 c0 30 4 47 13 48 6 0 135 1 285 1 242 1
272 3 273 17 0 9 1 86 1 171 l1 155 -514 3 -515 2 0 -620z"/>
<path d="M2319 2208 c-1 -4 -1 -1187 0 -1215 l1 -23 224 0 c170 0 225 3 228
13 2 6 3 92 3 190 l-1 177 71 0 72 0 40 -87 c23 -49 62 -134 89 -191 l48 -102
485 2 485 3 30 117 c17 64 35 120 39 125 5 4 74 8 153 8 l144 1 14 -46 c7 -25
22 -82 32 -127 l18 -83 243 0 c134 0 243 4 243 8 0 5 -29 105 -66 223 -125
409 -304 1001 -304 1006 0 2 -140 2 -312 1 l-311 -3 -73 -220 c-39 -121 -129
-395 -200 -609 -142 -433 -126 -408 -186 -291 -16 33 -50 98 -75 145 -87 161
-99 185 -106 202 -4 12 6 24 39 43 88 52 142 176 142 328 0 176 -62 303 -174
358 -93 45 -137 48 -598 49 -240 0 -436 -1 -437 -2z m703 -351 c48 -13 66
-113 27 -158 -19 -22 -27 -24 -145 -25 l-124 -1 0 83 c0 46 -1 87 -2 91 -2 4
10 10 26 13 39 7 187 4 218 -3z m1292 -150 c8 -38 14 -61 24 -102 5 -22 13
-52 16 -66 l6 -26 -75 0 c-41 0 -75 2 -75 3 0 2 14 56 31 121 37 140 37 140
39 178 2 28 14 -12 34 -108z"/>
</g>
</svg>
